HIERARCHY
ROOT Hips
{
	OFFSET 0.000000 0.000000 0.000000
	CHANNELS 6 Xposition Yposition Zposition Xrotation Yrotation Zrotation
	JOINT LeftUpLeg_virtual
	{
		OFFSET 0.000000 0.000000 0.000000
		CHANNELS 3 Xrotation Yrotation Zrotation
		JOINT LeftUpLeg
		{
			OFFSET 10.205400 -3.823500 0.155100
			CHANNELS 3 Xrotation Yrotation Zrotation
			JOINT LeftLeg
			{
				OFFSET 0.708757 -12.982077 0.567790
				CHANNELS 3 Xrotation Yrotation Zrotation
				JOINT LeftFoot
				{
					OFFSET -0.708756 -10.717838 -2.184338
					CHANNELS 3 Xrotation Yrotation Zrotation
					JOINT LeftToeBase
					{
						OFFSET 0.108149 -7.191104 7.560241
						CHANNELS 3 Xrotation Yrotation Zrotation
						JOINT LeftToe_End
						{
							OFFSET 0.070230 0.081724 4.490308
							CHANNELS 3 Xrotation Yrotation Zrotation
							End Site
							{
								OFFSET 0 0 0
							}
						}
					}
				}
			}
		}
	}
	JOINT RightUpLeg_virtual
	{
		OFFSET 0.000000 0.000000 0.000000
		CHANNELS 3 Xrotation Yrotation Zrotation
		JOINT RightUpLeg
		{
			OFFSET -10.205400 -3.823500 0.005500
			CHANNELS 3 Xrotation Yrotation Zrotation
			JOINT RightLeg
			{
				OFFSET -0.708756 -12.982134 0.610632
				CHANNELS 3 Xrotation Yrotation Zrotation
				JOINT RightFoot
				{
					OFFSET 0.708754 -10.717769 -1.945823
					CHANNELS 3 Xrotation Yrotation Zrotation
					JOINT RightToeBase
					{
						OFFSET -0.108140 -7.191069 7.372968
						CHANNELS 3 Xrotation Yrotation Zrotation
						JOINT RightToe_End
						{
							OFFSET -0.070227 0.081735 4.479403
							CHANNELS 3 Xrotation Yrotation Zrotation
							End Site
							{
								OFFSET 0 0 0
							}
						}
					}
				}
			}
		}
	}
	JOINT Spine_virtual
	{
		OFFSET 0.000000 0.000000 0.000000
		CHANNELS 3 Xrotation Yrotation Zrotation
		JOINT Spine
		{
			OFFSET 0.000000 6.876099 0.125700
			CHANNELS 3 Xrotation Yrotation Zrotation
			JOINT Spine1
			{
				OFFSET 0.000000 5.730043 0.104720
				CHANNELS 3 Xrotation Yrotation Zrotation
				JOINT Spine1_split
				{
					OFFSET 0.000000 5.730043 0.104720
					CHANNELS 3 Xrotation Yrotation Zrotation
					JOINT Spine2
					{
						OFFSET 0.000000 5.730043 0.104720
						CHANNELS 3 Xrotation Yrotation Zrotation
						JOINT Neck_virtual
						{
							OFFSET 0.000000 0.000000 0.000000
							CHANNELS 3 Xrotation Yrotation Zrotation
							JOINT Neck
							{
								OFFSET 0.000000 10.314075 0.188496
								CHANNELS 3 Xrotation Yrotation Zrotation
								JOINT Head
								{
									OFFSET 0.000000 7.643700 -2.377400
									CHANNELS 3 Xrotation Yrotation Zrotation
									JOINT HeadTop_End
									{
										OFFSET 0.000000 43.788605 -13.619600
										CHANNELS 3 Xrotation Yrotation Zrotation
										End Site
										{
											OFFSET 0 0 0
										}
									}
								}
							}
						}
						JOINT LeftShoulder_virtual
						{
							OFFSET 0.000000 0.000000 0.000000
							CHANNELS 3 Xrotation Yrotation Zrotation
							JOINT LeftShoulder
							{
								OFFSET 2.196100 4.412489 0.087492
								CHANNELS 3 Xrotation Yrotation Zrotation
								JOINT LeftShoulder_split
								{
									OFFSET 2.196100 4.412489 0.087492
									CHANNELS 3 Xrotation Yrotation Zrotation
									JOINT LeftArm
									{
										OFFSET 8.771219 -2.981674 -0.026999
										CHANNELS 3 Xrotation Yrotation Zrotation
										JOINT LeftForeArm
										{
											OFFSET 8.512804 0.000000 -0.000000
											CHANNELS 3 Xrotation Yrotation Zrotation
											JOINT LeftHand
											{
												OFFSET 18.484802 0.000000 -0.000000
												CHANNELS 3 Xrotation Yrotation Zrotation
												End Site
												{
													OFFSET 0 0 0
												}
											}
										}
									}
								}
							}
						}
						JOINT RightShoulder_virtual
						{
							OFFSET 0.000000 0.000000 0.000000
							CHANNELS 3 Xrotation Yrotation Zrotation
							JOINT RightShoulder
							{
								OFFSET -2.196100 4.412496 0.070690
								CHANNELS 3 Xrotation Yrotation Zrotation
								JOINT RightShoulder_split
								{
									OFFSET -2.196100 4.412496 0.070690
									CHANNELS 3 Xrotation Yrotation Zrotation
									JOINT RightArm
									{
										OFFSET -8.771282 -2.981682 -0.094208
										CHANNELS 3 Xrotation Yrotation Zrotation
										JOINT RightForeArm
										{
											OFFSET -8.494598 0.000000 0.000000
											CHANNELS 3 Xrotation Yrotation Zrotation
											JOINT RightHand
											{
												OFFSET -18.483803 0.000000 0.000001
												CHANNELS 3 Xrotation Yrotation Zrotation
												End Site
												{
													OFFSET 0 0 0
												}
											}
										}
									}
								}
							}
						}
					}
				}
			}
		}
	}
}
MOTION
Frames: 8
Frame Time: 0.03333333
2.619806 50.236389 -1.101623 0.000000 0.000000 0.000000 4.266769 11.135761 -0.525965 -52.989458 0.584719 -0.504096 69.359560 9.848346 0.476483 18.076803 4.229012 -16.421580 -8.485873 4.527798 1.946700 0.000000 0.000000 0.000000 5.487333 12.241751 -0.723057 -26.059989 -7.761159 -18.401575 51.232470 18.359195 14.473652 -7.971719 -25.721142 14.934326 -9.586680 5.585274 0.276344 0.000000 0.000000 0.000000 5.024333 11.913155 -0.314027 -6.963459 0.445410 12.893757 -1.751519 3.412026 -1.095913 0.074412 -0.631806 -0.072198 0.000000 0.000000 0.000000 8.464269 4.457007 0.436983 -11.247477 14.125548 -6.712479 -57.405527 -45.976397 -35.819551 0.000000 0.000000 0.000000 -0.951950 3.743697 -1.237898 14.640480 -9.196039 42.299642 6.489935 5.551841 0.822266 -68.503977 -21.922897 5.652791 -32.441271 -17.483442 3.725790 0.000000 0.000000 0.000000 1.001926 3.081836 0.475724 -8.887050 -20.278082 -48.356510 -5.102877 3.885553 -3.162947 -81.420984 26.527539 3.196608 -44.541416 17.618847 38.521410 0.000000 0.000000 0.000000 
2.533580 50.444862 -2.199606 0.000000 0.000000 0.000000 3.882891 9.231681 -0.064281 -52.894143 -0.198353 -1.632700 71.672481 8.554499 1.180379 17.887188 2.398796 -19.119062 -8.359819 4.169209 2.504809 0.000000 0.000000 0.000000 5.455976 10.464157 -0.305957 -25.328503 -8.529515 -17.303390 56.191608 20.052845 14.022271 -6.059021 -26.062827 13.151209 -9.914607 5.573522 1.556973 0.000000 0.000000 0.000000 5.446400 10.941655 0.258604 -7.532247 0.335317 12.600321 -2.031871 3.537764 -1.127059 0.068255 -0.585276 -0.137426 0.000000 0.000000 0.000000 8.491213 4.559585 0.301313 -11.386813 13.508738 -5.959703 -56.156186 -46.363396 -35.063562 0.000000 0.000000 0.000000 -0.924285 3.797767 -1.099495 14.200039 -9.182987 43.027880 4.844568 5.738869 0.412109 -70.437227 -24.469428 3.886434 -31.284114 -18.845991 4.750418 0.000000 0.000000 0.000000 1.402387 3.187755 0.505965 -9.360347 -20.187924 -48.980270 -3.285337 2.855920 -3.001859 -84.458451 24.608801 5.061201 -46.625214 19.099840 39.539921 0.000000 0.000000 0.000000 
2.407178 51.035294 -3.777514 0.000000 0.000000 0.000000 2.999162 5.208975 0.481230 -51.168861 -0.974083 -3.666400 73.089991 6.529426 1.743598 14.813371 1.110664 -19.815455 -8.578297 3.573496 2.979394 0.000000 0.000000 0.000000 5.120613 6.538973 0.216169 -21.207797 -8.864698 -15.697313 56.775869 21.042609 13.127121 -0.654492 -25.699458 14.321979 -16.960108 5.124119 3.231684 0.000000 0.000000 0.000000 5.540846 8.210102 0.610504 -7.366914 1.187005 11.893404 -2.011173 3.877214 -0.762695 0.091121 -0.469661 -0.203060 0.000000 0.000000 0.000000 8.354069 4.971593 0.565490 -11.993270 12.489488 -4.580486 -53.733669 -47.230123 -34.094610 0.000000 0.000000 0.000000 -0.899615 4.061579 -0.616192 13.377391 -7.172888 44.001520 3.667180 6.461087 -1.035620 -76.881128 -25.074755 -0.496321 -31.780761 -22.312445 5.213126 0.000000 0.000000 0.000000 1.693277 3.562592 0.962200 -9.951739 -20.111550 -49.928731 -2.045817 2.145620 -2.617181 -87.646149 22.688543 7.678203 -47.443081 19.000183 38.641583 0.000000 0.000000 0.000000 
2.137143 51.871040 -5.351487 0.000000 0.000000 0.000000 2.193041 -0.144253 0.966039 -48.851432 -1.550721 -5.552753 73.129592 4.676350 1.472299 9.928670 1.103355 -17.371543 -5.871995 3.050560 2.169458 0.000000 0.000000 0.000000 4.425632 0.001424 0.694726 -14.895710 -8.906312 -14.165871 51.643931 20.940322 11.865198 3.984708 -24.757747 16.119415 -25.799523 4.332617 4.441581 0.000000 0.000000 0.000000 5.390576 3.096423 0.607644 -6.448950 2.933236 11.030326 -1.670143 4.445724 -0.086971 0.080792 -0.359489 -0.254874 0.000000 0.000000 0.000000 7.878931 5.704209 1.130465 -12.961087 11.191616 -2.772599 -50.546405 -48.263059 -33.204405 0.000000 0.000000 0.000000 -0.644395 4.570412 0.096441 12.312756 -3.623546 44.909768 3.304983 6.865123 -2.186274 -84.494208 -23.082097 -5.393072 -33.773117 -26.462079 5.168764 0.000000 0.000000 0.000000 1.917878 4.266069 1.681521 -10.445251 -19.805530 -51.143408 -1.945056 2.643820 -2.400578 -90.191938 21.229311 10.745372 -46.727196 17.448446 35.845642 0.000000 0.000000 0.000000 
1.869502 52.817459 -6.804461 0.000000 0.000000 0.000000 1.781126 -6.787682 1.286126 -46.906843 -1.703201 -6.584462 70.881347 3.181284 0.253646 5.440808 2.203115 -12.392559 0.029059 2.628180 0.010753 0.000000 0.000000 0.000000 3.819543 -8.534122 1.102039 -8.267575 -8.955942 -13.598253 42.442184 20.316512 10.174888 6.372451 -23.320776 16.688912 -28.249268 4.044707 4.518866 0.000000 0.000000 0.000000 5.072177 -4.106205 0.356370 -5.026972 5.415812 10.153195 -1.098021 5.251808 0.798879 0.114737 -0.380779 -0.227264 0.000000 0.000000 0.000000 7.138317 6.698122 1.880257 -13.924313 9.791724 -0.725052 -46.781844 -49.030639 -32.556049 0.000000 0.000000 0.000000 -0.110173 5.354550 0.879962 11.219483 0.856816 45.406821 3.630356 6.590765 -2.342238 -90.416111 -19.530347 -9.045132 -36.648589 -29.487822 5.008935 0.000000 0.000000 0.000000 2.037283 5.302278 2.496092 -10.820295 -18.978818 -52.618305 -2.993562 4.501468 -1.829843 -91.511182 20.607044 13.945894 -44.758353 15.046383 31.700465 0.000000 0.000000 0.000000 
1.557257 53.730515 -8.242545 0.000000 0.000000 0.000000 1.745652 -14.746937 1.487014 -44.800047 -1.694111 -6.589210 65.824828 1.952271 -1.452046 3.071790 3.950233 -6.059247 5.073885 2.135165 -1.960473 0.000000 0.000000 0.000000 3.280638 -17.824275 1.496612 -3.925280 -9.649251 -14.441383 31.924816 19.403913 8.839250 9.586414 -21.770982 16.639907 -22.127438 4.610923 3.221233 0.000000 0.000000 0.000000 4.734495 -12.446232 -0.111718 -3.378958 8.418206 9.266229 -0.427254 6.263312 1.713580 0.244796 -0.499709 -0.109934 0.000000 0.000000 0.000000 6.305883 7.873938 2.664289 -14.513430 8.444954 1.315844 -42.716645 -49.005573 -32.268010 0.000000 0.000000 0.000000 0.573760 6.384298 1.517236 10.498625 5.257498 45.079973 3.820492 5.872989 -1.171816 -93.003455 -15.574843 -10.515142 -39.473695 -30.378257 5.294641 0.000000 0.000000 0.000000 2.182402 6.621839 3.225276 -10.876987 -17.388962 -54.086134 -4.767396 6.010052 -1.096825 -91.650579 20.671258 17.018011 -42.151683 12.680698 26.977687 0.000000 0.000000 0.000000 
1.118497 54.399269 -9.653832 0.000000 0.000000 0.000000 2.036438 -24.130760 1.869657 -41.944806 -1.809802 -5.713916 58.554057 0.935529 -3.128734 3.081572 6.197420 -0.136966 7.448292 1.688438 -3.356031 0.000000 0.000000 0.000000 3.008582 -26.970993 1.749743 -3.302542 -11.059066 -16.764464 23.090645 18.531121 8.198553 16.148043 -19.766052 19.163528 -12.650238 5.502989 -0.050870 0.000000 0.000000 0.000000 4.389268 -21.666863 -0.475759 -1.842027 11.636141 8.332231 0.248342 7.423535 2.468177 0.379906 -0.621005 0.021724 0.000000 0.000000 0.000000 5.592418 9.121909 3.313375 -14.353612 7.309989 3.148689 -38.314079 -48.344970 -32.280311 0.000000 0.000000 0.000000 1.253268 7.574842 1.891345 10.407059 8.854032 44.140460 3.603069 5.731537 0.690104 -93.046390 -12.484846 -10.756491 -42.164991 -29.287677 6.043828 0.000000 0.000000 0.000000 2.417278 8.120008 3.741500 -10.569869 -15.162675 -55.370820 -6.605807 6.535981 -0.539544 -91.020351 20.843939 19.918695 -39.354983 11.322353 22.292460 0.000000 0.000000 0.000000 
0.721185 54.590080 -10.969789 0.000000 0.000000 0.000000 2.368569 -33.720504 2.295528 -38.273361 -1.941717 -3.986301 50.719158 -0.206597 -4.313036 5.037471 8.571848 3.495288 7.892772 1.365312 -4.394992 0.000000 0.000000 0.000000 3.036245 -35.599322 1.832902 -5.983465 -12.214341 -19.840164 17.223309 17.975040 7.890372 24.587016 -16.573326 25.006224 -5.241263 6.113528 -5.080112 0.000000 0.000000 0.000000 3.983142 -31.089952 -0.394480 -0.643217 14.774655 7.263504 1.007607 8.651198 2.917926 0.364590 -0.796492 0.048664 0.000000 0.000000 0.000000 5.237610 10.375601 3.704522 -13.254137 6.419417 4.667186 -33.446169 -47.378468 -32.248946 0.000000 0.000000 0.000000 1.796045 8.844765 1.999715 10.987251 11.323885 42.767417 2.839826 6.898117 2.574341 -92.590577 -11.331475 -11.462423 -44.382293 -27.299074 6.961900 0.000000 0.000000 0.000000 2.693070 9.598914 3.986547 -9.761764 -12.363208 -56.371836 -7.970838 4.786139 -0.183088 -90.496755 20.402972 22.638981 -36.585014 11.521573 17.962918 0.000000 0.000000 0.000000 
